<svg width="200" height="200" viewBox="0 0 200 200" fill="none" xmlns="http://www.w3.org/2000/svg">
<path d="M155.594 21.8886C154.69 19.7069 152.945 18.0376 150.799 17.3022L150.783 17.297L150.768 17.2917L150.737 17.2811L150.671 17.2595L150.53 17.2152C150.432 17.1852 150.325 17.1546 150.21 17.1239C149.98 17.0624 149.717 17.0005 149.421 16.9432C148.828 16.8284 148.107 16.7322 147.257 16.6899C145.55 16.6049 143.364 16.7381 140.681 17.3378C136.206 18.3377 130.397 20.622 123.103 25.3025C122.627 25.6085 122.143 25.9246 121.654 26.2513C121.164 26.13 120.674 26.0129 120.183 25.9C106.884 22.8402 93.1184 22.8402 79.8188 25.9C79.3278 26.013 78.8374 26.13 78.3478 26.2514C77.8582 25.9246 77.3749 25.6085 76.8979 25.3025C69.5969 20.6195 63.7743 18.3357 59.2879 17.3365C56.5983 16.7376 54.4076 16.6051 52.7 16.6898C51.8489 16.732 51.128 16.8275 50.5357 16.9415C50.24 16.9985 49.9777 17.0597 49.7486 17.1205C49.6341 17.151 49.528 17.1813 49.4303 17.2109L49.2901 17.2546L49.2249 17.2759L49.1934 17.2864L49.1779 17.2915L49.1627 17.2967C46.9983 18.033 45.2398 19.7185 44.3374 21.9217C40.9764 30.1283 40.0842 39.1778 41.7029 47.8588C41.7816 48.2805 41.8662 48.7015 41.9567 49.1215C41.6097 49.6144 41.2725 50.114 40.9453 50.6199C35.8976 58.424 33.2128 67.7325 33.3386 77.291C33.3507 97.7625 39.3304 111.782 49.4434 120.804C55.1679 125.911 61.8119 129.037 68.4894 131.007C69.2535 131.232 70.0181 131.442 70.7818 131.639C70.6703 132.027 70.5664 132.417 70.4701 132.811C70.0658 134.464 69.7977 136.162 69.6736 137.884C69.6624 138.04 69.6553 138.196 69.6524 138.352L69.3697 153.508L69.3681 153.672C69.3681 153.72 69.3681 153.767 69.3681 153.814C68.8552 153.942 68.3338 154.036 67.8069 154.097C66.1834 154.284 64.5389 154.147 62.9675 153.695C61.396 153.242 59.9273 152.482 58.646 151.457C57.3648 150.432 56.2961 149.162 55.5026 147.717L55.4209 147.572C53.2364 143.779 50.2189 140.532 46.5952 138.079C42.9714 135.625 38.8367 134.03 34.5039 133.416C29.9471 132.77 25.7294 135.94 25.0835 140.497C24.4376 145.054 27.608 149.272 32.1649 149.917C33.9847 150.176 35.724 150.846 37.251 151.88C38.7601 152.902 40.0231 154.252 40.945 155.833C42.7884 159.16 45.2638 162.095 48.2334 164.471C51.2294 166.868 54.6694 168.649 58.356 169.711C61.9457 170.744 65.6994 171.076 69.4124 170.687C69.4199 172.687 69.4253 174.221 69.4253 175C69.4253 179.602 72.9601 183.333 77.3206 183.333H122.965C127.325 183.333 130.86 179.602 130.86 175V143.412C131.075 139.835 130.708 136.249 129.782 132.811C129.654 132.337 129.516 131.867 129.368 131.399C129.865 131.275 130.363 131.144 130.86 131.007C137.731 129.114 144.594 126.02 150.49 120.819C160.659 111.847 166.652 97.8158 166.663 77.291C166.789 67.7325 164.104 58.424 159.057 50.6199C158.729 50.1131 158.392 49.6128 158.043 49.119C158.133 48.6999 158.218 48.2798 158.296 47.8588C159.911 39.1611 158.996 30.0951 155.594 21.8886Z" fill="#040B12"/>
</svg>
