<svg width="200" height="200" viewBox="0 0 200 200" fill="none" xmlns="http://www.w3.org/2000/svg">
<path fill-rule="evenodd" clip-rule="evenodd" d="M45.5094 195.398V66.6617H2.72461V195.398H45.5094V195.398ZM24.1215 49.0914C39.0367 49.0914 48.3277 39.1977 48.3277 26.8441C48.0457 14.216 39.0367 4.60156 24.4012 4.60156C9.76328 4.60195 0.195312 14.2164 0.195312 26.8445C0.195312 39.198 9.48125 49.0918 23.8398 49.0918L24.1215 49.0914ZM69.1891 195.398C69.1891 195.398 69.7504 78.7406 69.1891 66.6621H111.98V85.3316H111.696C117.323 76.5465 127.46 63.6391 150.54 63.6391C178.698 63.6391 199.804 82.0387 199.804 121.582V195.398H157.02V126.528C157.02 109.223 150.829 97.4145 135.341 97.4145C123.523 97.4145 116.48 105.375 113.388 113.071C112.256 115.81 111.98 119.657 111.98 123.505V195.398H69.1891Z" fill="#040B12"/>
</svg>
