<svg width="20" height="20" viewBox="0 0 20 20" fill="none" xmlns="http://www.w3.org/2000/svg">
<g clip-path="url(#clip0_80_4)">
<path d="M3.33333 13.3333C5.17428 13.3333 6.66667 11.8409 6.66667 10C6.66667 8.15905 5.17428 6.66666 3.33333 6.66666C1.49238 6.66666 0 8.15905 0 10C0 11.8409 1.49238 13.3333 3.33333 13.3333Z" fill="url(#paint0_linear_80_4)"/>
<path d="M16.6667 6.66667C18.5076 6.66667 20 5.17428 20 3.33333C20 1.49238 18.5076 0 16.6667 0C14.8257 0 13.3333 1.49238 13.3333 3.33333C13.3333 5.17428 14.8257 6.66667 16.6667 6.66667Z" fill="url(#paint1_linear_80_4)"/>
<path d="M16.6667 20C18.5076 20 20 18.5076 20 16.6667C20 14.8257 18.5076 13.3333 16.6667 13.3333C14.8257 13.3333 13.3333 14.8257 13.3333 16.6667C13.3333 18.5076 14.8257 20 16.6667 20Z" fill="url(#paint2_linear_80_4)"/>
<path d="M14 15.3333L3.33333 10L14 4.66666" stroke="url(#paint3_linear_80_4)" stroke-width="2"/>
</g>
<defs>
<linearGradient id="paint0_linear_80_4" x1="0" y1="10" x2="6.66667" y2="10" gradientUnits="userSpaceOnUse">
<stop stop-color="#26C4EC"/>
<stop offset="1" stop-color="#2C75FF"/>
</linearGradient>
<linearGradient id="paint1_linear_80_4" x1="14" y1="4.66667" x2="19.6667" y2="1.83333" gradientUnits="userSpaceOnUse">
<stop stop-color="#2C75FF"/>
<stop offset="1" stop-color="#0132B5"/>
</linearGradient>
<linearGradient id="paint2_linear_80_4" x1="14" y1="15.3333" x2="19.6667" y2="18.1667" gradientUnits="userSpaceOnUse">
<stop stop-color="#2C75FF"/>
<stop offset="1" stop-color="#0132B5"/>
</linearGradient>
<linearGradient id="paint3_linear_80_4" x1="0.999992" y1="10" x2="14" y2="10" gradientUnits="userSpaceOnUse">
<stop stop-color="#27B9EF"/>
<stop offset="0.436298" stop-color="#2C75FF"/>
</linearGradient>
<clipPath id="clip0_80_4">
<rect width="20" height="20" fill="white"/>
</clipPath>
</defs>
</svg>
