<svg width="22" height="21" viewBox="0 0 22 21" fill="none" xmlns="http://www.w3.org/2000/svg">
<path d="M7.47931 21L7.47931 18.0123M7.47931 18.0123C7.47931 14.5267 9.46122 14.5267 8.96575 14.5267C4.50643 14.5267 0.542591 9.04921 4.50642 5.06562C3.51546 4.06972 3.79818 1.49303 4.50643 1.08202C6.19273 0.927064 7.7516 1.72668 8.96575 2.6253C10.045 2.20183 11.8704 1.60897 14.8922 2.6253C15.7691 1.85066 18.4939 0.679212 19.3708 1.08202C20.1342 1.49303 20.3618 4.06972 19.3708 5.06562C23.3346 9.04921 19.3708 14.5267 14.8922 14.5267C14.416 14.5267 16.3979 14.5267 16.3979 18.0123L16.3979 21M7.47931 18.0123C5.00191 19.0082 0.542579 15.5226 1.03807 15.0246C1.53355 14.5267 3.51547 19.5062 7.4793 17.0164" stroke="url(#paint0_linear_22_251)" stroke-width="2"/>
<defs>
<linearGradient id="paint0_linear_22_251" x1="1.53355" y1="11.0224" x2="21.297" y2="11.0224" gradientUnits="userSpaceOnUse">
<stop stop-color="#26C4EC"/>
<stop offset="0.55" stop-color="#2C75FF"/>
<stop offset="1" stop-color="#0132B5"/>
</linearGradient>
</defs>
</svg>
