<svg width="22" height="22" viewBox="0 0 22 22" fill="none" xmlns="http://www.w3.org/2000/svg">
<path d="M5.14904 21H1.2129V7.1765H5.14904V21Z" stroke="url(#paint0_linear_22_254)"/>
<path d="M11.9841 21H7.59584V7.1765H11.9575V9.32353C11.9575 6.41176 21 5.61763 21 12.7353V21H16.4788V12.353C16.4788 9.97061 11.9841 10.0294 11.9841 12.353V21Z" stroke="url(#paint1_linear_22_254)"/>
<path d="M3.18097 1C1.41503 1 0.99127 2.41176 1.00014 3.11764C1.00014 3.82352 1.4363 5.23529 3.18097 5.23529C4.92564 5.23529 5.36181 3.82352 5.36181 3.11764C5.36181 2.41176 4.92564 1 3.18097 1Z" stroke="url(#paint2_linear_22_254)"/>
<defs>
<linearGradient id="paint0_linear_22_254" x1="1" y1="11" x2="21" y2="11" gradientUnits="userSpaceOnUse">
<stop stop-color="#26C4EC"/>
<stop offset="0.504167" stop-color="#2C75FF"/>
<stop offset="1" stop-color="#0132B5"/>
</linearGradient>
<linearGradient id="paint1_linear_22_254" x1="1" y1="11" x2="21" y2="11" gradientUnits="userSpaceOnUse">
<stop stop-color="#26C4EC"/>
<stop offset="0.504167" stop-color="#2C75FF"/>
<stop offset="1" stop-color="#0132B5"/>
</linearGradient>
<linearGradient id="paint2_linear_22_254" x1="1" y1="11" x2="21" y2="11" gradientUnits="userSpaceOnUse">
<stop stop-color="#26C4EC"/>
<stop offset="0.504167" stop-color="#2C75FF"/>
<stop offset="1" stop-color="#0132B5"/>
</linearGradient>
</defs>
</svg>
