<svg width="200" height="200" viewBox="0 0 200 200" fill="none" xmlns="http://www.w3.org/2000/svg">
<g clip-path="url(#clip0_203_14)">
<path d="M148.09 137.162C141.891 137.162 136.117 138.964 131.248 142.063L82.1087 107.756C82.8976 105.002 83.3289 102.098 83.3289 99.0908C83.3289 96.0835 82.8976 93.1787 82.1087 90.4253L129.921 57.0441C135.051 60.6881 141.318 62.838 148.09 62.838C165.441 62.838 179.508 48.7711 179.508 31.4192C179.508 14.0673 165.442 0 148.09 0C130.738 0 116.671 14.0669 116.671 31.4188C116.671 33.7104 116.923 35.9423 117.389 38.0944L68.3624 72.3233C63.5767 69.3758 57.9434 67.672 51.9101 67.672C34.5582 67.672 20.4913 81.7389 20.4913 99.0908C20.4913 116.443 34.5578 130.51 51.9101 130.51C57.9429 130.51 63.5767 128.806 68.3624 125.858L117.768 160.351C117.057 162.975 116.671 165.733 116.671 168.581C116.671 185.933 130.738 200 148.09 200C165.442 200 179.509 185.933 179.509 168.581C179.509 151.229 165.442 137.162 148.09 137.162Z" fill="#040B12"/>
</g>
<defs>
<clipPath id="clip0_203_14">
<rect width="200" height="200" fill="white"/>
</clipPath>
</defs>
</svg>
