<svg width="492" height="492" viewBox="0 0 492 492" fill="none" xmlns="http://www.w3.org/2000/svg">
<path d="M1.96301 246H15.4405" stroke="#0132B5" stroke-linecap="round"/>
<path d="M476.562 246H490.04" stroke="#0132B5" stroke-linecap="round"/>
<path d="M1.96301 238.87L15.4204 239.333" stroke="#0132B5" stroke-linecap="round"/>
<path d="M1.96301 233.172L15.4204 233.636" stroke="#0132B5" stroke-linecap="round"/>
<path d="M1.96301 227.477L15.3959 228.403" stroke="#0132B5" stroke-linecap="round"/>
<path d="M1.96301 221.78L15.3959 222.706" stroke="#0132B5" stroke-linecap="round"/>
<path d="M2.92505 216.082L16.317 217.472" stroke="#0132B5" stroke-linecap="round"/>
<path d="M3.88684 210.385L17.2216 212.235" stroke="#0132B5" stroke-linecap="round"/>
<path d="M4.84863 204.69L18.1089 206.998" stroke="#0132B5" stroke-linecap="round"/>
<path d="M5.85547 198.765L19.0273 201.529" stroke="#0132B5" stroke-linecap="round"/>
<path d="M6.87012 193.069L19.9365 196.285" stroke="#0132B5" stroke-linecap="round"/>
<path d="M8.69507 187.597L21.7614 190.813" stroke="#0132B5" stroke-linecap="round"/>
<path d="M9.65686 181.902L22.6008 185.566" stroke="#0132B5" stroke-linecap="round"/>
<path d="M11.5117 176.426L24.4556 180.09" stroke="#0132B5" stroke-linecap="round"/>
<path d="M13.5044 170.507L26.3109 174.615" stroke="#0132B5" stroke-linecap="round"/>
<path d="M15.5051 165.319L28.1586 169.866" stroke="#0132B5" stroke-linecap="round"/>
<path d="M17.428 160.064L30.0814 164.61" stroke="#0132B5" stroke-linecap="round"/>
<path d="M19.437 155.099L31.922 160.079" stroke="#0132B5" stroke-linecap="round"/>
<path d="M21.3608 149.618L33.8459 154.598" stroke="#0132B5" stroke-linecap="round"/>
<path d="M24.0847 143.923L36.3861 149.329" stroke="#0132B5" stroke-linecap="round"/>
<path d="M26.1073 138.965L38.21 144.792" stroke="#0132B5" stroke-linecap="round"/>
<path d="M29.0994 133.272L40.9887 139.512" stroke="#0132B5" stroke-linecap="round"/>
<path d="M31.9855 128.73L43.8748 134.971" stroke="#0132B5" stroke-linecap="round"/>
<path d="M34.0232 123.779L45.6847 130.426" stroke="#0132B5" stroke-linecap="round"/>
<path d="M36.9088 119.235L48.5703 125.881" stroke="#0132B5" stroke-linecap="round"/>
<path d="M39.4744 113.539L50.8938 120.583" stroke="#0132B5" stroke-linecap="round"/>
<path d="M43.4485 108.596L54.6119 116.029" stroke="#0132B5" stroke-linecap="round"/>
<path d="M46.4696 103.853L57.3635 111.666" stroke="#0132B5" stroke-linecap="round"/>
<path d="M50.054 99.297L60.6649 107.481" stroke="#0132B5" stroke-linecap="round"/>
<path d="M53.9022 94.549L64.5132 102.733" stroke="#0132B5" stroke-linecap="round"/>
<path d="M57.8967 89.8007L68.2119 98.3451" stroke="#0132B5" stroke-linecap="round"/>
<path d="M60.9365 85.0547L70.9434 93.9493" stroke="#0132B5" stroke-linecap="round"/>
<path d="M65.4437 81.2554L75.13 90.4893" stroke="#0132B5" stroke-linecap="round"/>
<path d="M69.2899 77.4587L78.9762 86.6927" stroke="#0132B5" stroke-linecap="round"/>
<path d="M73.3035 72.5469L82.6574 82.1089" stroke="#0132B5" stroke-linecap="round"/>
<path d="M77.1573 68.7544L86.1675 78.6328" stroke="#0132B5" stroke-linecap="round"/>
<path d="M81.7935 65.1147L90.4489 75.2976" stroke="#0132B5" stroke-linecap="round"/>
<path d="M85.8243 61.1708L94.1145 71.6456" stroke="#0132B5" stroke-linecap="round"/>
<path d="M90.4507 57.3741L98.7409 67.849" stroke="#0132B5" stroke-linecap="round"/>
<path d="M95.4471 53.5817L103.362 64.3357" stroke="#0132B5" stroke-linecap="round"/>
<path d="M100.26 50.6003L107.79 61.6205" stroke="#0132B5" stroke-linecap="round"/>
<path d="M104.877 47.7505L112.407 58.7707" stroke="#0132B5" stroke-linecap="round"/>
<path d="M109.687 44.7762L116.823 56.0491" stroke="#0132B5" stroke-linecap="round"/>
<path d="M114.496 41.3779L121.229 52.8898" stroke="#0132B5" stroke-linecap="round"/>
<path d="M119.305 38.4161L125.626 50.1529" stroke="#0132B5" stroke-linecap="round"/>
<path d="M123.904 35.7852L130.226 47.522" stroke="#0132B5" stroke-linecap="round"/>
<path d="M128.711 32.833L134.614 44.7805" stroke="#0132B5" stroke-linecap="round"/>
<path d="M133.519 29.9832L139.422 41.9306" stroke="#0132B5" stroke-linecap="round"/>
<path d="M139.287 27.0382L144.764 39.1817" stroke="#0132B5" stroke-linecap="round"/>
<path d="M143.876 24.4615L149.353 36.6051" stroke="#0132B5" stroke-linecap="round"/>
<path d="M149.426 21.6118L154.903 33.7554" stroke="#0132B5" stroke-linecap="round"/>
<path d="M154.226 19.6234L159.27 31.9482" stroke="#0132B5" stroke-linecap="round"/>
<path d="M159.771 17.7228L164.816 30.0476" stroke="#0132B5" stroke-linecap="round"/>
<path d="M165.472 14.7916L170.078 27.2827" stroke="#0132B5" stroke-linecap="round"/>
<path d="M171.244 12.8929L175.85 25.3841" stroke="#0132B5" stroke-linecap="round"/>
<path d="M177.237 10.9185L181.399 23.5614" stroke="#0132B5" stroke-linecap="round"/>
<path d="M182.048 9.0282L185.76 21.8075" stroke="#0132B5" stroke-linecap="round"/>
<path d="M187.594 8.14685L191.306 20.9262" stroke="#0132B5" stroke-linecap="round"/>
<path d="M193.366 6.24634L196.624 19.1454" stroke="#0132B5" stroke-linecap="round"/>
<path d="M199.138 5.23706L202.396 18.1361" stroke="#0132B5" stroke-linecap="round"/>
<path d="M205.136 4.23621L207.936 17.2394" stroke="#0132B5" stroke-linecap="round"/>
<path d="M210.91 3.24304L213.248 16.3325" stroke="#0132B5" stroke-linecap="round"/>
<path d="M216.681 3.2052L218.555 16.3677" stroke="#0132B5" stroke-linecap="round"/>
<path d="M222.221 2.25635L224.095 15.4188" stroke="#0132B5" stroke-linecap="round"/>
<path d="M227.991 1.30713L229.863 14.4699" stroke="#0132B5" stroke-linecap="round"/>
<path d="M233.996 1.27795L235.399 14.4978" stroke="#0132B5" stroke-linecap="round"/>
<path d="M239.767 1.25879L240.701 14.5188" stroke="#0132B5" stroke-linecap="round"/>
<path d="M491 238.87L477.543 239.333" stroke="#0132B5" stroke-linecap="round"/>
<path d="M491 233.172L477.543 233.636" stroke="#0132B5" stroke-linecap="round"/>
<path d="M491 227.477L477.567 228.403" stroke="#0132B5" stroke-linecap="round"/>
<path d="M491 221.78L477.567 222.706" stroke="#0132B5" stroke-linecap="round"/>
<path d="M490.038 216.082L476.646 217.472" stroke="#0132B5" stroke-linecap="round"/>
<path d="M489.076 210.385L475.741 212.235" stroke="#0132B5" stroke-linecap="round"/>
<path d="M488.114 204.69L474.854 206.998" stroke="#0132B5" stroke-linecap="round"/>
<path d="M487.108 198.765L473.936 201.529" stroke="#0132B5" stroke-linecap="round"/>
<path d="M486.093 193.069L473.026 196.285" stroke="#0132B5" stroke-linecap="round"/>
<path d="M484.266 187.597L471.2 190.813" stroke="#0132B5" stroke-linecap="round"/>
<path d="M483.306 181.902L470.362 185.566" stroke="#0132B5" stroke-linecap="round"/>
<path d="M481.451 176.426L468.507 180.09" stroke="#0132B5" stroke-linecap="round"/>
<path d="M479.458 170.507L466.651 174.615" stroke="#0132B5" stroke-linecap="round"/>
<path d="M477.457 165.319L464.804 169.866" stroke="#0132B5" stroke-linecap="round"/>
<path d="M475.533 160.064L462.88 164.61" stroke="#0132B5" stroke-linecap="round"/>
<path d="M473.526 155.099L461.041 160.079" stroke="#0132B5" stroke-linecap="round"/>
<path d="M471.602 149.618L459.117 154.598" stroke="#0132B5" stroke-linecap="round"/>
<path d="M468.878 143.923L456.577 149.329" stroke="#0132B5" stroke-linecap="round"/>
<path d="M466.856 138.965L454.753 144.792" stroke="#0132B5" stroke-linecap="round"/>
<path d="M463.864 133.272L451.974 139.512" stroke="#0132B5" stroke-linecap="round"/>
<path d="M460.977 128.73L449.088 134.971" stroke="#0132B5" stroke-linecap="round"/>
<path d="M458.94 123.779L447.278 130.426" stroke="#0132B5" stroke-linecap="round"/>
<path d="M456.053 119.235L444.392 125.881" stroke="#0132B5" stroke-linecap="round"/>
<path d="M453.488 113.539L442.069 120.583" stroke="#0132B5" stroke-linecap="round"/>
<path d="M449.515 108.596L438.351 116.029" stroke="#0132B5" stroke-linecap="round"/>
<path d="M446.493 103.853L435.599 111.666" stroke="#0132B5" stroke-linecap="round"/>
<path d="M442.909 99.297L432.298 107.481" stroke="#0132B5" stroke-linecap="round"/>
<path d="M439.061 94.549L428.45 102.733" stroke="#0132B5" stroke-linecap="round"/>
<path d="M435.065 89.8007L424.75 98.3451" stroke="#0132B5" stroke-linecap="round"/>
<path d="M432.027 85.0547L422.02 93.9493" stroke="#0132B5" stroke-linecap="round"/>
<path d="M427.519 81.2554L417.833 90.4893" stroke="#0132B5" stroke-linecap="round"/>
<path d="M423.673 77.4587L413.986 86.6927" stroke="#0132B5" stroke-linecap="round"/>
<path d="M419.659 72.5469L410.305 82.1089" stroke="#0132B5" stroke-linecap="round"/>
<path d="M415.806 68.7544L406.795 78.6328" stroke="#0132B5" stroke-linecap="round"/>
<path d="M411.169 65.1147L402.513 75.2976" stroke="#0132B5" stroke-linecap="round"/>
<path d="M407.138 61.1708L398.848 71.6456" stroke="#0132B5" stroke-linecap="round"/>
<path d="M402.512 57.3741L394.222 67.849" stroke="#0132B5" stroke-linecap="round"/>
<path d="M397.516 53.5817L389.601 64.3357" stroke="#0132B5" stroke-linecap="round"/>
<path d="M392.702 50.6003L385.173 61.6205" stroke="#0132B5" stroke-linecap="round"/>
<path d="M388.083 47.7505L380.554 58.7707" stroke="#0132B5" stroke-linecap="round"/>
<path d="M383.275 44.7762L376.14 56.0491" stroke="#0132B5" stroke-linecap="round"/>
<path d="M378.467 41.3779L371.734 52.8898" stroke="#0132B5" stroke-linecap="round"/>
<path d="M373.658 38.4161L367.337 50.1529" stroke="#0132B5" stroke-linecap="round"/>
<path d="M369.058 35.7852L362.736 47.522" stroke="#0132B5" stroke-linecap="round"/>
<path d="M364.252 32.833L358.349 44.7805" stroke="#0132B5" stroke-linecap="round"/>
<path d="M359.444 29.9832L353.541 41.9306" stroke="#0132B5" stroke-linecap="round"/>
<path d="M353.676 27.0382L348.199 39.1817" stroke="#0132B5" stroke-linecap="round"/>
<path d="M349.084 24.4615L343.608 36.6051" stroke="#0132B5" stroke-linecap="round"/>
<path d="M343.536 21.6118L338.059 33.7554" stroke="#0132B5" stroke-linecap="round"/>
<path d="M338.737 19.6234L333.693 31.9482" stroke="#0132B5" stroke-linecap="round"/>
<path d="M333.192 17.7228L328.147 30.0476" stroke="#0132B5" stroke-linecap="round"/>
<path d="M327.49 14.7916L322.885 27.2827" stroke="#0132B5" stroke-linecap="round"/>
<path d="M321.719 12.8929L317.113 25.3841" stroke="#0132B5" stroke-linecap="round"/>
<path d="M315.725 10.9185L311.564 23.5614" stroke="#0132B5" stroke-linecap="round"/>
<path d="M310.914 9.0282L307.202 21.8075" stroke="#0132B5" stroke-linecap="round"/>
<path d="M305.369 8.14685L301.657 20.9262" stroke="#0132B5" stroke-linecap="round"/>
<path d="M299.597 6.24634L296.339 19.1454" stroke="#0132B5" stroke-linecap="round"/>
<path d="M293.825 5.23706L290.567 18.1361" stroke="#0132B5" stroke-linecap="round"/>
<path d="M287.827 4.23621L285.027 17.2394" stroke="#0132B5" stroke-linecap="round"/>
<path d="M282.053 3.24304L279.715 16.3325" stroke="#0132B5" stroke-linecap="round"/>
<path d="M276.281 3.2052L274.408 16.3677" stroke="#0132B5" stroke-linecap="round"/>
<path d="M270.742 2.25635L268.868 15.4188" stroke="#0132B5" stroke-linecap="round"/>
<path d="M264.972 1.30713L263.1 14.4699" stroke="#0132B5" stroke-linecap="round"/>
<path d="M258.967 1.27795L257.563 14.4978" stroke="#0132B5" stroke-linecap="round"/>
<path d="M253.196 1.25879L252.262 14.5188" stroke="#0132B5" stroke-linecap="round"/>
<path d="M245.99 14.332V0.999802" stroke="#0132B5" stroke-linecap="round"/>
<path d="M1 253.13L14.4573 252.665" stroke="#0132B5" stroke-linecap="round"/>
<path d="M1 258.827L14.4573 258.362" stroke="#0132B5" stroke-linecap="round"/>
<path d="M1 264.522L14.4326 263.592" stroke="#0132B5" stroke-linecap="round"/>
<path d="M1 270.22L14.4326 269.289" stroke="#0132B5" stroke-linecap="round"/>
<path d="M1.96228 275.917L15.3542 274.528" stroke="#0132B5" stroke-linecap="round"/>
<path d="M2.92395 281.613L16.2588 279.763" stroke="#0132B5" stroke-linecap="round"/>
<path d="M3.88623 287.31L17.1465 285.002" stroke="#0132B5" stroke-linecap="round"/>
<path d="M4.89246 293.235L18.0643 290.471" stroke="#0132B5" stroke-linecap="round"/>
<path d="M5.90674 298.931L18.9731 295.715" stroke="#0132B5" stroke-linecap="round"/>
<path d="M7.73181 304.402L20.7982 301.186" stroke="#0132B5" stroke-linecap="round"/>
<path d="M8.69421 310.098L21.6381 306.434" stroke="#0132B5" stroke-linecap="round"/>
<path d="M10.5492 315.574L23.4931 311.91" stroke="#0132B5" stroke-linecap="round"/>
<path d="M12.542 321.492L25.3485 317.385" stroke="#0132B5" stroke-linecap="round"/>
<path d="M14.5428 326.681L27.1963 322.134" stroke="#0132B5" stroke-linecap="round"/>
<path d="M16.4648 331.936L29.1183 327.39" stroke="#0132B5" stroke-linecap="round"/>
<path d="M18.4741 336.9L30.9591 331.921" stroke="#0132B5" stroke-linecap="round"/>
<path d="M20.3979 342.381L32.883 337.402" stroke="#0132B5" stroke-linecap="round"/>
<path d="M23.1215 348.079L35.4228 342.672" stroke="#0132B5" stroke-linecap="round"/>
<path d="M25.1445 353.034L37.2473 347.207" stroke="#0132B5" stroke-linecap="round"/>
<path d="M28.1365 358.728L40.0258 352.488" stroke="#0132B5" stroke-linecap="round"/>
<path d="M31.0225 363.271L42.9118 357.03" stroke="#0132B5" stroke-linecap="round"/>
<path d="M33.0602 368.221L44.7217 361.574" stroke="#0132B5" stroke-linecap="round"/>
<path d="M35.9463 372.765L47.6078 366.118" stroke="#0132B5" stroke-linecap="round"/>
<path d="M38.5114 378.462L49.9308 371.418" stroke="#0132B5" stroke-linecap="round"/>
<path d="M42.4856 383.404L53.649 375.97" stroke="#0132B5" stroke-linecap="round"/>
<path d="M45.5068 388.147L56.4007 380.333" stroke="#0132B5" stroke-linecap="round"/>
<path d="M49.0913 392.703L59.7023 384.519" stroke="#0132B5" stroke-linecap="round"/>
<path d="M52.9391 397.451L63.5501 389.267" stroke="#0132B5" stroke-linecap="round"/>
<path d="M56.934 402.198L67.2492 393.653" stroke="#0132B5" stroke-linecap="round"/>
<path d="M59.9733 406.945L69.9801 398.05" stroke="#0132B5" stroke-linecap="round"/>
<path d="M64.4808 410.744L74.1671 401.51" stroke="#0132B5" stroke-linecap="round"/>
<path d="M68.3268 414.541L78.0131 405.307" stroke="#0132B5" stroke-linecap="round"/>
<path d="M72.3406 419.453L81.6945 409.891" stroke="#0132B5" stroke-linecap="round"/>
<path d="M76.1946 423.245L85.2048 413.367" stroke="#0132B5" stroke-linecap="round"/>
<path d="M80.8309 426.885L89.4864 416.702" stroke="#0132B5" stroke-linecap="round"/>
<path d="M84.8615 430.829L93.1517 420.354" stroke="#0132B5" stroke-linecap="round"/>
<path d="M89.4885 434.626L97.7787 424.151" stroke="#0132B5" stroke-linecap="round"/>
<path d="M94.4846 438.418L102.399 427.664" stroke="#0132B5" stroke-linecap="round"/>
<path d="M99.2996 441.4L106.829 430.379" stroke="#0132B5" stroke-linecap="round"/>
<path d="M103.914 444.249L111.444 433.229" stroke="#0132B5" stroke-linecap="round"/>
<path d="M108.724 447.224L115.86 435.951" stroke="#0132B5" stroke-linecap="round"/>
<path d="M113.534 450.622L120.267 439.11" stroke="#0132B5" stroke-linecap="round"/>
<path d="M118.342 453.583L124.664 441.847" stroke="#0132B5" stroke-linecap="round"/>
<path d="M122.942 456.215L129.263 444.478" stroke="#0132B5" stroke-linecap="round"/>
<path d="M127.748 459.167L133.651 447.22" stroke="#0132B5" stroke-linecap="round"/>
<path d="M132.558 462.015L138.461 450.067" stroke="#0132B5" stroke-linecap="round"/>
<path d="M138.324 464.961L143.801 452.818" stroke="#0132B5" stroke-linecap="round"/>
<path d="M142.914 467.538L148.391 455.395" stroke="#0132B5" stroke-linecap="round"/>
<path d="M148.464 470.386L153.941 458.243" stroke="#0132B5" stroke-linecap="round"/>
<path d="M153.263 472.376L158.307 460.051" stroke="#0132B5" stroke-linecap="round"/>
<path d="M158.808 474.277L163.853 461.952" stroke="#0132B5" stroke-linecap="round"/>
<path d="M164.509 477.206L169.115 464.715" stroke="#0132B5" stroke-linecap="round"/>
<path d="M170.281 479.107L174.887 466.615" stroke="#0132B5" stroke-linecap="round"/>
<path d="M176.275 481.081L180.436 468.438" stroke="#0132B5" stroke-linecap="round"/>
<path d="M181.085 482.971L184.797 470.192" stroke="#0132B5" stroke-linecap="round"/>
<path d="M186.631 483.854L190.343 471.075" stroke="#0132B5" stroke-linecap="round"/>
<path d="M192.403 485.753L195.661 472.854" stroke="#0132B5" stroke-linecap="round"/>
<path d="M198.175 486.762L201.433 473.863" stroke="#0132B5" stroke-linecap="round"/>
<path d="M204.173 487.764L206.973 474.761" stroke="#0132B5" stroke-linecap="round"/>
<path d="M209.947 488.759L212.285 475.669" stroke="#0132B5" stroke-linecap="round"/>
<path d="M215.719 488.794L217.592 475.632" stroke="#0132B5" stroke-linecap="round"/>
<path d="M221.258 489.744L223.132 476.581" stroke="#0132B5" stroke-linecap="round"/>
<path d="M227.028 490.693L228.9 477.53" stroke="#0132B5" stroke-linecap="round"/>
<path d="M233.033 490.722L234.436 477.502" stroke="#0132B5" stroke-linecap="round"/>
<path d="M238.804 490.741L239.738 477.481" stroke="#0132B5" stroke-linecap="round"/>
<path d="M490.037 253.13L476.58 252.667" stroke="#0132B5" stroke-linecap="round"/>
<path d="M490.037 258.827L476.58 258.364" stroke="#0132B5" stroke-linecap="round"/>
<path d="M490.037 264.522L476.604 263.597" stroke="#0132B5" stroke-linecap="round"/>
<path d="M490.037 270.22L476.604 269.294" stroke="#0132B5" stroke-linecap="round"/>
<path d="M489.075 275.917L475.683 274.528" stroke="#0132B5" stroke-linecap="round"/>
<path d="M488.113 281.613L474.778 279.763" stroke="#0132B5" stroke-linecap="round"/>
<path d="M487.151 287.31L473.891 285.002" stroke="#0132B5" stroke-linecap="round"/>
<path d="M486.145 293.235L472.973 290.471" stroke="#0132B5" stroke-linecap="round"/>
<path d="M485.13 298.931L472.063 295.715" stroke="#0132B5" stroke-linecap="round"/>
<path d="M483.305 304.402L470.239 301.186" stroke="#0132B5" stroke-linecap="round"/>
<path d="M482.343 310.098L469.399 306.434" stroke="#0132B5" stroke-linecap="round"/>
<path d="M480.488 315.574L467.544 311.91" stroke="#0132B5" stroke-linecap="round"/>
<path d="M478.495 321.492L465.688 317.385" stroke="#0132B5" stroke-linecap="round"/>
<path d="M476.494 326.681L463.841 322.134" stroke="#0132B5" stroke-linecap="round"/>
<path d="M474.572 331.936L461.918 327.39" stroke="#0132B5" stroke-linecap="round"/>
<path d="M472.563 336.9L460.078 331.921" stroke="#0132B5" stroke-linecap="round"/>
<path d="M470.639 342.381L458.154 337.402" stroke="#0132B5" stroke-linecap="round"/>
<path d="M467.915 348.079L455.613 342.672" stroke="#0132B5" stroke-linecap="round"/>
<path d="M465.892 353.034L453.79 347.207" stroke="#0132B5" stroke-linecap="round"/>
<path d="M462.9 358.728L451.011 352.488" stroke="#0132B5" stroke-linecap="round"/>
<path d="M460.014 363.271L448.125 357.03" stroke="#0132B5" stroke-linecap="round"/>
<path d="M457.977 368.221L446.315 361.574" stroke="#0132B5" stroke-linecap="round"/>
<path d="M455.091 372.765L443.429 366.118" stroke="#0132B5" stroke-linecap="round"/>
<path d="M452.526 378.462L441.106 371.418" stroke="#0132B5" stroke-linecap="round"/>
<path d="M448.551 383.404L437.388 375.97" stroke="#0132B5" stroke-linecap="round"/>
<path d="M445.53 388.147L434.637 380.333" stroke="#0132B5" stroke-linecap="round"/>
<path d="M441.945 392.703L431.334 384.519" stroke="#0132B5" stroke-linecap="round"/>
<path d="M438.098 397.451L427.487 389.267" stroke="#0132B5" stroke-linecap="round"/>
<path d="M434.103 402.198L423.788 393.653" stroke="#0132B5" stroke-linecap="round"/>
<path d="M431.063 406.945L421.057 398.05" stroke="#0132B5" stroke-linecap="round"/>
<path d="M426.557 410.744L416.871 401.51" stroke="#0132B5" stroke-linecap="round"/>
<path d="M422.709 414.541L413.023 405.307" stroke="#0132B5" stroke-linecap="round"/>
<path d="M418.696 419.453L409.342 409.891" stroke="#0132B5" stroke-linecap="round"/>
<path d="M414.843 423.245L405.833 413.367" stroke="#0132B5" stroke-linecap="round"/>
<path d="M410.207 426.885L401.551 416.702" stroke="#0132B5" stroke-linecap="round"/>
<path d="M406.176 430.829L397.885 420.354" stroke="#0132B5" stroke-linecap="round"/>
<path d="M401.55 434.626L393.26 424.151" stroke="#0132B5" stroke-linecap="round"/>
<path d="M396.553 438.418L388.638 427.664" stroke="#0132B5" stroke-linecap="round"/>
<path d="M391.739 441.4L384.209 430.379" stroke="#0132B5" stroke-linecap="round"/>
<path d="M387.122 444.249L379.592 433.229" stroke="#0132B5" stroke-linecap="round"/>
<path d="M382.313 447.224L375.177 435.951" stroke="#0132B5" stroke-linecap="round"/>
<path d="M377.505 450.622L370.772 439.11" stroke="#0132B5" stroke-linecap="round"/>
<path d="M372.695 453.583L366.373 441.847" stroke="#0132B5" stroke-linecap="round"/>
<path d="M368.095 456.215L361.774 444.478" stroke="#0132B5" stroke-linecap="round"/>
<path d="M363.289 459.167L357.386 447.22" stroke="#0132B5" stroke-linecap="round"/>
<path d="M358.481 462.015L352.578 450.067" stroke="#0132B5" stroke-linecap="round"/>
<path d="M352.713 464.961L347.236 452.818" stroke="#0132B5" stroke-linecap="round"/>
<path d="M348.124 467.538L342.647 455.395" stroke="#0132B5" stroke-linecap="round"/>
<path d="M342.575 470.386L337.098 458.243" stroke="#0132B5" stroke-linecap="round"/>
<path d="M337.774 472.376L332.73 460.051" stroke="#0132B5" stroke-linecap="round"/>
<path d="M332.229 474.277L327.184 461.952" stroke="#0132B5" stroke-linecap="round"/>
<path d="M326.528 477.206L321.922 464.715" stroke="#0132B5" stroke-linecap="round"/>
<path d="M320.756 479.107L316.15 466.615" stroke="#0132B5" stroke-linecap="round"/>
<path d="M314.763 481.081L310.601 468.438" stroke="#0132B5" stroke-linecap="round"/>
<path d="M309.952 482.971L306.24 470.192" stroke="#0132B5" stroke-linecap="round"/>
<path d="M304.406 483.854L300.694 471.075" stroke="#0132B5" stroke-linecap="round"/>
<path d="M298.634 485.753L295.376 472.854" stroke="#0132B5" stroke-linecap="round"/>
<path d="M292.862 486.762L289.604 473.863" stroke="#0132B5" stroke-linecap="round"/>
<path d="M286.864 487.764L284.064 474.761" stroke="#0132B5" stroke-linecap="round"/>
<path d="M281.09 488.759L278.752 475.669" stroke="#0132B5" stroke-linecap="round"/>
<path d="M275.318 488.794L273.444 475.632" stroke="#0132B5" stroke-linecap="round"/>
<path d="M269.779 489.744L267.905 476.581" stroke="#0132B5" stroke-linecap="round"/>
<path d="M264.009 490.693L262.137 477.53" stroke="#0132B5" stroke-linecap="round"/>
<path d="M258.004 490.722L256.601 477.502" stroke="#0132B5" stroke-linecap="round"/>
<path d="M252.233 490.741L251.299 477.481" stroke="#0132B5" stroke-linecap="round"/>
<path d="M245.027 477.668V491" stroke="#0132B5" stroke-linecap="round"/>
</svg>
