<svg width="144" height="144" viewBox="0 0 144 144" fill="none" xmlns="http://www.w3.org/2000/svg">
<path d="M73.4956 2.99123L2.99121 73.4956L53.7544 124.259L65.0351 112.978L45.2938 93.2368L65.0351 73.4956L53.7544 62.2149L34.0131 81.9561L25.5526 73.4956L84.7763 14.2719L73.4956 2.99123Z" fill="#9370DB"/>
<path d="M73.4956 65.0351L62.2149 53.7544L93.2368 22.7325L144 73.4956L73.4956 144L62.2149 132.719L121.439 73.4956L112.978 65.0351L73.4956 104.518L62.2149 93.2368L101.697 53.7544L93.2368 45.2939L73.4956 65.0351Z" fill="#9370DB"/>
<path d="M70.5044 1.46416e-05L0 70.5044L50.7632 121.268L62.0439 109.987L42.3026 90.2456L62.0439 70.5044L50.7632 59.2237L31.0219 78.9649L22.5614 70.5044L81.7851 11.2807L70.5044 1.46416e-05Z" fill="white"/>
<path d="M70.5044 62.0439L59.2237 50.7632L90.2456 19.7412L141.009 70.5044L70.5044 141.009L59.2237 129.728L118.447 70.5044L109.987 62.0439L70.5044 101.526L59.2237 90.2456L98.7061 50.7632L90.2456 42.3026L70.5044 62.0439Z" fill="white"/>
</svg>
